<svg id="Layer_1" data-name="Layer 1" xmlns="http://www.w3.org/2000/svg" viewBox="0 0 111.91 86.91"><defs><style>.cls-1{fill:#fff;}.cls-2{fill:#e6549e;}.cls-3{fill:#56bc77;}.cls-4{fill:#ef4244;}.cls-5{fill:#f2b341;}</style></defs><title>chegaai-marca-vetores</title><path class="cls-1" d="M8,70.27c-1.77,0-3,1.47-3,3.63s1.22,3.62,3,3.62a3.06,3.06,0,0,0,2.93-1.69l3.63,2.08c-1.19,2.3-3.63,3.6-6.81,3.6-4.63,0-7.7-3-7.7-7.59S3.1,66.2,7.75,66.2a7.38,7.38,0,0,1,6.7,3.54l-3.57,2.08A3.42,3.42,0,0,0,8,70.27"/><path class="cls-1" d="M32.26,71.9v9.44H27.33v-8a2.46,2.46,0,0,0-2.55-2.74C23,70.6,21.85,72,21.85,74v7.39H16.92V60.8h4.93v8a5.49,5.49,0,0,1,4.95-2.63c3.3,0,5.46,2.21,5.46,5.73"/><path class="cls-1" d="M49.73,75.17H39.32a3.36,3.36,0,0,0,3.41,2.63,5,5,0,0,0,3.51-1.52l2.58,2.57a8.41,8.41,0,0,1-6.53,2.66c-4.91,0-7.92-3-7.92-7.59s3.12-7.72,7.8-7.72c5.24,0,7.9,3.52,7.56,9M45,72.54a2.68,2.68,0,0,0-2.77-2.88c-1.6,0-2.66,1.16-3,2.88Z"/><path class="cls-1" d="M66.63,66.36V80c0,4.24-3.3,6.9-8.14,6.9A12.39,12.39,0,0,1,51.79,85l1.71-3.4A8.27,8.27,0,0,0,58.13,83c2.24,0,3.6-1.13,3.6-2.88v-1.6a5.1,5.1,0,0,1-4.27,2c-3.74,0-6.39-2.88-6.39-7.23s2.57-7.08,6.28-7.08a5.35,5.35,0,0,1,4.38,2V66.36Zm-4.9,7.06c0-2.1-1.22-3.51-3-3.51s-3.05,1.44-3.05,3.51,1.22,3.49,3.05,3.49,3-1.44,3-3.49"/><path class="cls-1" d="M83.55,71.6v9.74H78.7V79.65a5.4,5.4,0,0,1-4.51,1.92c-3.21,0-5.12-1.94-5.12-4.69s2-4.48,5.73-4.54h3.9v-.16c0-1.41-1-2.24-2.85-2.24a10.91,10.91,0,0,0-4.49,1.19L70,67.8a16.5,16.5,0,0,1,7-1.63c4.13,0,6.54,2,6.57,5.43M78.7,76.28V75H75.77c-1.39,0-2.08.49-2.08,1.55s.75,1.68,2,1.68a3,3,0,0,0,3-1.93"/><path class="cls-1" d="M90.75,79.16a2.37,2.37,0,1,1-4.74,0,2.37,2.37,0,1,1,4.74,0"/><path class="cls-1" d="M103.93,81.34l0-2.85a6.3,6.3,0,0,1-5.76,2.88c-2.85,0-4.76-1.8-4.76-4.24s2.05-3.87,5.37-3.87h5.13V71.85c0-2.44-1.44-3.91-4.32-3.91a7.84,7.84,0,0,0-4.85,1.88l-.55-.88a9,9,0,0,1,5.56-2c3.41,0,5.26,1.88,5.29,4.87l0,9.58Zm0-4.7V74.28h-5c-2.82,0-4.37,1-4.37,2.83s1.47,3.21,3.82,3.21c2.69,0,4.71-1.16,5.59-3.68"/><path class="cls-1" d="M111.91,62.77a1,1,0,1,1-1.94,0,1,1,0,1,1,1.94,0m-.42,18.57h-1.14V66.92h1.14Z"/><path class="cls-2" d="M25.07,48.38V29.89a4.21,4.21,0,0,1,8.42,0V48.38a4.21,4.21,0,0,1-8.42,0"/><path class="cls-2" d="M35.77,39h0a4.68,4.68,0,1,1,4.68,4.68A4.69,4.69,0,0,1,35.77,39"/><path class="cls-3" d="M21.26,19V37.5a4.21,4.21,0,0,1-8.42,0V19a4.21,4.21,0,0,1,8.42,0"/><path class="cls-3" d="M10.56,28.43h0a4.68,4.68,0,1,1-4.68-4.68,4.7,4.7,0,0,1,4.68,4.68"/><path class="cls-4" d="M48.52,33.58V15.09a4.22,4.22,0,0,1,8.43,0V33.58a4.22,4.22,0,0,1-8.43,0"/><path class="cls-4" d="M59.23,24.16h0a4.68,4.68,0,1,1,4.68,4.68,4.69,4.69,0,0,1-4.68-4.68"/><path class="cls-5" d="M44.72,4.21V22.7a4.21,4.21,0,1,1-8.42,0V4.21a4.21,4.21,0,1,1,8.42,0"/><path class="cls-5" d="M34,13.63h0A4.68,4.68,0,1,1,29.34,9,4.7,4.7,0,0,1,34,13.63"/></svg>