<svg id="Layer_1" data-name="Layer 1" xmlns="http://www.w3.org/2000/svg" viewBox="0 0 112.09 86.91"><defs><style>.cls-1{fill:#fff;}.cls-2{fill:#e6549e;}.cls-3{fill:#56bc77;}.cls-4{fill:#ef4244;}.cls-5{fill:#f2b341;}</style></defs><title>chegaai-marca-vetores</title><path class="cls-1" d="M8.14,70.27c-1.78,0-3,1.47-3,3.63s1.21,3.62,3,3.62a3.06,3.06,0,0,0,2.93-1.69l3.63,2.08c-1.19,2.3-3.63,3.6-6.81,3.6-4.63,0-7.7-3-7.7-7.59s3.1-7.72,7.75-7.72a7.38,7.38,0,0,1,6.7,3.54l-3.57,2.08a3.42,3.42,0,0,0-2.93-1.55"/><path class="cls-1" d="M32.45,71.9v9.44H27.52v-8A2.46,2.46,0,0,0,25,70.57C23.14,70.6,22,72,22,74v7.39H17.11V60.8H22v8A5.49,5.49,0,0,1,27,66.17c3.3,0,5.46,2.21,5.46,5.73"/><path class="cls-1" d="M49.92,75.17H39.51a3.36,3.36,0,0,0,3.41,2.63,5,5,0,0,0,3.51-1.52L49,78.85a8.42,8.42,0,0,1-6.54,2.66c-4.9,0-7.91-3-7.91-7.59s3.12-7.72,7.8-7.72c5.24,0,7.9,3.52,7.56,9m-4.76-2.63a2.68,2.68,0,0,0-2.77-2.88c-1.6,0-2.66,1.16-3,2.88Z"/><path class="cls-1" d="M66.81,66.36V80c0,4.24-3.29,6.9-8.14,6.9A12.42,12.42,0,0,1,52,85l1.72-3.4A8.26,8.26,0,0,0,58.31,83c2.25,0,3.6-1.13,3.6-2.88v-1.6a5.08,5.08,0,0,1-4.26,2c-3.74,0-6.4-2.88-6.4-7.23s2.58-7.08,6.29-7.08a5.32,5.32,0,0,1,4.37,2V66.36Zm-4.9,7.06c0-2.1-1.21-3.51-3-3.51s-3,1.44-3,3.51,1.22,3.49,3,3.49,3-1.44,3-3.49"/><path class="cls-1" d="M83.74,71.6v9.74H78.89V79.65a5.4,5.4,0,0,1-4.51,1.92c-3.22,0-5.13-1.94-5.13-4.69s2-4.48,5.74-4.54h3.9v-.16c0-1.41-1-2.24-2.85-2.24a10.91,10.91,0,0,0-4.49,1.19L70.2,67.8a16.5,16.5,0,0,1,7-1.63c4.13,0,6.54,2,6.57,5.43m-4.85,4.68V75H76c-1.38,0-2.07.49-2.07,1.55s.75,1.68,2,1.68a3,3,0,0,0,3-1.93"/><path class="cls-1" d="M90.94,79.16a2.37,2.37,0,1,1-4.74,0,2.37,2.37,0,1,1,4.74,0"/><path class="cls-1" d="M104.12,81.34l0-2.85a6.3,6.3,0,0,1-5.76,2.88c-2.85,0-4.76-1.8-4.76-4.24s2.05-3.87,5.37-3.87h5.12V71.85c0-2.44-1.44-3.91-4.32-3.91a7.84,7.84,0,0,0-4.84,1.88l-.56-.88a9,9,0,0,1,5.57-2c3.41,0,5.26,1.88,5.29,4.87l0,9.58Zm0-4.7V74.28h-5c-2.82,0-4.37,1-4.37,2.83s1.47,3.21,3.82,3.21c2.68,0,4.7-1.16,5.59-3.68"/><path class="cls-1" d="M112.09,62.77a1,1,0,1,1-1-1,1,1,0,0,1,1,1m-.41,18.57h-1.14V66.92h1.14Z"/><path class="cls-2" d="M25.25,48.38V29.89a4.22,4.22,0,0,1,8.43,0V48.38a4.22,4.22,0,0,1-8.43,0"/><path class="cls-3" d="M21.45,19V37.5a4.21,4.21,0,0,1-8.42,0V19a4.21,4.21,0,0,1,8.42,0"/><path class="cls-4" d="M48.71,33.58V15.09a4.22,4.22,0,0,1,8.43,0V33.58a4.22,4.22,0,0,1-8.43,0"/><path class="cls-5" d="M44.91,4.21V22.7a4.21,4.21,0,1,1-8.42,0V4.21a4.21,4.21,0,1,1,8.42,0"/><path class="cls-3" d="M2.18,34h0A2.19,2.19,0,0,1,0,31.84v-6.7a2.18,2.18,0,0,1,4.36,0v6.7A2.19,2.19,0,0,1,2.18,34"/><path class="cls-3" d="M8,34H8a2.19,2.19,0,0,1-2.18-2.18v-6.7a2.18,2.18,0,0,1,4.36,0v6.7A2.19,2.19,0,0,1,8,34"/><path class="cls-2" d="M39.12,44.63h0a2.18,2.18,0,0,1-2.18-2.17v-6.7a2.18,2.18,0,0,1,4.36,0v6.7a2.18,2.18,0,0,1-2.18,2.17"/><path class="cls-2" d="M45,44.63h0a2.18,2.18,0,0,1-2.18-2.17v-6.7a2.18,2.18,0,0,1,4.36,0v6.7A2.18,2.18,0,0,1,45,44.63"/><path class="cls-4" d="M63,30.07h0a2.18,2.18,0,0,1-2.18-2.18v-6.7a2.18,2.18,0,1,1,4.35,0v6.7A2.18,2.18,0,0,1,63,30.07"/><path class="cls-4" d="M68.84,30.07h0a2.18,2.18,0,0,1-2.18-2.18v-6.7A2.18,2.18,0,0,1,68.84,19h0A2.18,2.18,0,0,1,71,21.19v6.7a2.18,2.18,0,0,1-2.17,2.18"/><path class="cls-5" d="M25.61,19.36h0a2.17,2.17,0,0,1-2.18-2.18V10.49a2.18,2.18,0,1,1,4.35,0v6.69a2.17,2.17,0,0,1-2.17,2.18"/><path class="cls-5" d="M31.46,19.36h0a2.17,2.17,0,0,1-2.18-2.18V10.49a2.18,2.18,0,1,1,4.35,0v6.69a2.17,2.17,0,0,1-2.17,2.18"/></svg>